<svg xmlns="http://www.w3.org/2000/svg" aria-hidden="true" style="position:absolute;width:0;height:0;overflow:hidden">
  <defs>
    <symbol id="arrow-down" viewBox="0 0 32 32">
      <path stroke-width="3.657" d="m8.605 15.106 7.914 7.914 7.914-7.914" />
    </symbol>
    <symbol id="arrow-right" viewBox="0 0 32 32">
      <path
        d="m21.504 3.499 8.42 12.8-8.42 12.914h-7.68l7.737-12.914-7.737-12.8h7.68zm1.707 9.728v6.201H2.845v-6.201h20.366z" />
    </symbol>
    <symbol id="burger" viewBox="0 0 32 32">
      <path stroke-linecap="square" stroke-width="1.867" d="M2.667 9.333h26.667M2.667 16.667h18.667M2.667 24h8" />
    </symbol>
    <symbol id="cat" viewBox="0 0 32 32">
      <path
        d="M12.657 19.883c0 1.116-.582 2.943-1.958 2.943s-1.958-1.827-1.958-2.943.582-2.943 1.958-2.943 1.958 1.827 1.958 2.943zm15.681-2.698c0 1.704-.171 3.51-.934 5.075-2.022 4.092-7.582 3.996-11.562 3.996-4.044 0-9.935.144-12.037-3.996-.779-1.549-1.078-3.371-1.078-5.075 0-2.238.742-4.354 2.214-6.068A8.386 8.386 0 0 1 4.53 8.51c0-1.148.261-1.725.779-2.767 2.417 0 3.964.481 5.805 1.923a20.389 20.389 0 0 1 4.733-.534c1.441 0 2.892.155 4.29.491 1.814-1.426 3.361-1.88 5.752-1.88.523 1.042.779 1.619.779 2.767 0 .876-.139 1.747-.411 2.575 1.467 1.731 2.081 3.862 2.081 6.1zm-3.431 2.698c0-2.345-1.425-4.412-3.922-4.412-1.009 0-1.974.182-2.988.321a15.64 15.64 0 0 1-2.406.171 15.73 15.73 0 0 1-2.406-.171c-.998-.139-1.974-.321-2.988-.321-2.497 0-3.922 2.067-3.922 4.412 0 4.69 4.29 5.411 8.025 5.411h2.572c3.751 0 8.035-.716 8.035-5.411zM20.5 16.94c-1.377 0-1.958 1.827-1.958 2.943s.582 2.943 1.958 2.943 1.958-1.827 1.958-2.943-.582-2.943-1.958-2.943z" />
    </symbol>
    <symbol id="dagger" viewBox="0 0 32 32">
      <path stroke-width="1.792" d="m7.583 7.5 16.833 16.833M7.583 24.5 24.416 7.667" />
    </symbol>
    <symbol id="game" viewBox="0 0 26 32">
      <path
        d="M3.619 3.728c0-.852.303-1.58.909-2.186a2.982 2.982 0 0 1 2.188-.91h12.387c.852 0 1.58.303 2.186.91.607.606.91 1.335.91 2.186v24.774c0 .852-.303 1.581-.91 2.188a2.98 2.98 0 0 1-2.186.909H6.716a2.985 2.985 0 0 1-2.188-.909 2.985 2.985 0 0 1-.909-2.188V3.728zm4.645 6.194c0 .439.149.807.446 1.104.296.296.664.444 1.102.444h1.548v1.548c0 .439.149.807.446 1.104.296.296.664.444 1.102.444s.807-.148 1.104-.444c.296-.297.444-.665.444-1.104V11.47h1.548c.439 0 .807-.148 1.104-.444.296-.297.444-.665.444-1.104s-.148-.807-.444-1.104a1.502 1.502 0 0 0-1.104-.444h-1.548V6.826c0-.439-.148-.807-.444-1.104-.297-.296-.665-.444-1.104-.444s-.806.148-1.102.444a1.5 1.5 0 0 0-.446 1.104v1.548H9.812c-.439 0-.806.148-1.102.444a1.5 1.5 0 0 0-.446 1.104zm0 10.064c0 .645.226 1.193.678 1.644.451.452.999.678 1.644.678s1.193-.226 1.644-.678c.452-.451.678-.999.678-1.644s-.226-1.193-.678-1.644c-.451-.452-.999-.678-1.644-.678s-1.193.226-1.644.678a2.236 2.236 0 0 0-.678 1.644zm4.645 4.645c0 .645.226 1.193.678 1.644.451.452.999.678 1.644.678s1.193-.226 1.644-.678c.452-.451.678-.999.678-1.644s-.226-1.193-.678-1.644c-.451-.452-.999-.678-1.644-.678s-1.193.226-1.644.678a2.236 2.236 0 0 0-.678 1.644z" />
    </symbol>
    <symbol id="gt" viewBox="0 0 32 32">
      <path
        d="M9.038 17.535h8.193v7.943h-3.377l-.403-3.396c-.384 1.215-1.068 2.117-2.053 2.705s-2.187.882-3.607.882c-1.292 0-2.443-.288-3.454-.863-.998-.576-1.784-1.401-2.36-2.475-.563-1.074-.844-2.328-.844-3.761 0-2.29.684-4.099 2.053-5.43s3.498-1.995 6.389-1.995c1.65 0 3.102.269 4.355.806 1.266.537 2.341 1.369 3.223 2.494-.576.294-1.701.883-3.377 1.765l-.48.269a4.741 4.741 0 0 0-1.746-1.113 5.825 5.825 0 0 0-2.11-.384c-1.228 0-2.142.326-2.744.979-.601.639-.902 1.433-.902 2.379 0 1.023.32 1.848.959 2.475.652.627 1.644.94 2.974.94.576 0 1.132-.083 1.669-.249a2.994 2.994 0 0 0 1.381-.863H9.036v-3.108z" />
      <path
        d="M29.932 10.36a234.3 234.3 0 0 0-5.852-.115V20.26h-4.797V10.245c-1.906.013-3.85.051-5.833.115V6.331h16.481v4.029z" />
    </symbol>
    <symbol id="lightning" viewBox="0 0 25 32">
      <path
        d="M24.731.682a.48.48 0 0 0-.435-.281H10.838a.49.49 0 0 0-.406.222L.085 17.075a.473.473 0 0 0 .396.746h7.41L1.35 30.644a.498.498 0 0 0 .023.486.495.495 0 0 0 .422.241h2.898a.47.47 0 0 0 .357-.155l16.975-18.377a.483.483 0 0 0-.357-.823h-6.512l9.497-10.819a.48.48 0 0 0 .077-.513z" />
    </symbol>
    <symbol id="youtube" viewBox="0 0 32 32">
      <path
        d="M25.574 7.416c-1.943-.486-10.203-.486-10.203-.486s-8.098 0-10.203.486C4.034 7.74 3.225 8.55 2.901 9.683c-.324 2.105-.324 6.316-.324 6.316s0 4.211.486 6.316c.324 1.134 1.134 1.943 2.267 2.267 1.943.486 10.203.486 10.203.486s8.098 0 10.203-.486c1.134-.324 1.943-1.134 2.267-2.267.486-2.105.486-6.316.486-6.316s0-4.211-.648-6.316c-.324-1.134-1.134-1.943-2.267-2.267zm-12.632 5.408c0-.317.342-.516.618-.358l5.557 3.175a.413.413 0 0 1 0 .717l-5.557 3.175a.413.413 0 0 1-.618-.358v-6.351z" />
    </symbol>
    <symbol id="bookmark" viewBox="0 0 32 32">
      <path
        d="M25.601 32c-.281 0-.557-.074-.8-.214l-8.8-5.075-8.8 5.075a1.603 1.603 0 0 1-2.186-.586 1.596 1.596 0 0 1-.214-.8V4.8a4.803 4.803 0 0 1 4.8-4.8h12.8a4.803 4.803 0 0 1 4.8 4.8v25.6a1.6 1.6 0 0 1-1.6 1.6z" />
    </symbol>
    <symbol id="hat" viewBox="0 0 32 32">
      <path
        d="M6.667 23.667v-5.021l5.413 3.537a7.165 7.165 0 0 0 7.84 0l5.413-3.537v5.021a1 1 0 0 1-.2.6l-.001.001-.001.003-.004.005-.012.013-.016.021-.017.023-.115.135a7.322 7.322 0 0 1-.423.44c-.369.356-.92.819-1.667 1.277C21.382 27.105 19.118 28 16 28s-5.381-.893-6.879-1.815a9.927 9.927 0 0 1-1.667-1.276 6.943 6.943 0 0 1-.569-.619l-.012-.013-.004-.007v-.003a1.003 1.003 0 0 1-.203-.601zm22.88-10.163-10.72 7.004a5.17 5.17 0 0 1-5.654 0L4 14.515v7.152a.997.997 0 0 1-1 1 .997.997 0 0 1-1-1v-8.333c0-.117.02-.229.057-.333a1 1 0 0 1 .403-1.174l10.752-6.893a5.17 5.17 0 0 1 5.576 0l10.752 6.893a1 1 0 0 1 .006 1.678z" />
    </symbol>
    <symbol id="play" viewBox="0 0 32 32">
      <path
        d="M25.579 4.825a1.594 1.594 0 0 0-.74-1.1 1.608 1.608 0 0 0-1.316-.164l-11.2 3.499A1.6 1.6 0 0 0 11.2 8.588v13.011a4 4 0 1 0 1.599 3.199V13.387l11.2-3.501v4.549a8.706 8.706 0 0 1 1.6.294V5.086c0-.09-.008-.176-.021-.262zm4.82 18.375a7.201 7.201 0 0 1-12.291 5.091A7.201 7.201 0 0 1 23.199 16a7.2 7.2 0 0 1 7.2 7.2zm-3.62-.696-4.79-2.64a.803.803 0 0 0-.793.011.798.798 0 0 0-.394.689v5.28a.802.802 0 0 0 .788.801.8.8 0 0 0 .398-.1l4.79-2.64a.804.804 0 0 0 .413-.7.794.794 0 0 0-.413-.7z" />
    </symbol>
    <symbol id="settings" viewBox="0 0 32 32">
      <path
        d="m23.265 24.381.9-.894c4.164.136 4.228-.01 4.411-.438l1.144-2.785.085-.264-.093-.231c-.049-.122-.2-.486-2.8-2.965V15.5c3-2.89 2.936-3.038 2.765-3.461l-1.139-2.814c-.171-.422-.236-.587-4.37-.474l-.9-.93c.093-1.37.046-2.746-.141-4.106l-.116-.263-2.974-1.3c-.438-.2-.592-.272-3.4 2.786l-1.262-.019c-2.891-3.086-3.028-3.03-3.461-2.855L9.149 3.182c-.433.175-.586.237-.418 4.437l-.893.89c-4.162-.136-4.226.012-4.407.438l-1.146 2.786-.09.267.094.232c.049.12.194.48 2.8 2.962v1.3c-3 2.89-2.935 3.038-2.763 3.462l1.138 2.817c.174.431.236.584 4.369.476l.9.935a20.293 20.293 0 0 0 .137 4.1l.116.265 2.993 1.308c.435.182.586.247 3.386-2.8l1.262.016c2.895 3.09 3.043 3.03 3.466 2.859l2.759-1.115c.436-.173.588-.234.413-4.436zm-11.858-6.524a4.958 4.958 0 0 1 1.204-5.354 4.953 4.953 0 0 1 5.404-.962 4.96 4.96 0 0 1 2.978 4.61 4.96 4.96 0 0 1-3.098 4.53 5.015 5.015 0 0 1-6.488-2.824z" />
    </symbol>
    <symbol id="star" viewBox="0 0 32 32">
      <path
        d="m30.966 11.476-9.593-1.396-4.288-8.705a1.209 1.209 0 0 0-2.169 0l-4.288 8.705-9.593 1.396A1.208 1.208 0 0 0 .001 12.69c.004.322.136.628.366.852l6.941 6.775-1.64 9.567a1.215 1.215 0 0 0 .48 1.184 1.207 1.207 0 0 0 1.273.091l8.58-4.517 8.58 4.517a1.208 1.208 0 0 0 1.753-1.275l-1.64-9.567 6.941-6.775a1.2 1.2 0 0 0 .351-.692 1.206 1.206 0 0 0-1.02-1.373z" />
    </symbol>
  </defs>
</svg>