<svg xmlns="http://www.w3.org/2000/svg" aria-hidden="true" style="position:absolute;width:0;height:0;overflow:hidden">
  <defs>
    <symbol id="arrow-down" viewBox="0 0 32 32">
      <path stroke-width="3.657" d="m8.605 15.106 7.914 7.914 7.914-7.914"/>
    </symbol>
    <symbol id="arrow-right" viewBox="0 0 32 32">
      <path d="m21.504 3.499 8.42 12.8-8.42 12.914h-7.68l7.737-12.914-7.737-12.8h7.68zm1.707 9.728v6.201H2.845v-6.201h20.366z"/>
    </symbol>
    <symbol id="burger" viewBox="0 0 32 32">
      <path stroke-linecap="square" stroke-width="1.867" d="M2.667 9.333h26.667M2.667 16.667h18.667M2.667 24h8"/>
    </symbol>
    <symbol id="cat" viewBox="0 0 32 32">
      <path d="M12.657 19.883c0 1.116-.582 2.943-1.958 2.943s-1.958-1.827-1.958-2.943.582-2.943 1.958-2.943 1.958 1.827 1.958 2.943zm15.681-2.698c0 1.704-.171 3.51-.934 5.075-2.022 4.092-7.582 3.996-11.562 3.996-4.044 0-9.935.144-12.037-3.996-.779-1.549-1.078-3.371-1.078-5.075 0-2.238.742-4.354 2.214-6.068A8.386 8.386 0 0 1 4.53 8.51c0-1.148.261-1.725.779-2.767 2.417 0 3.964.481 5.805 1.923a20.389 20.389 0 0 1 4.733-.534c1.441 0 2.892.155 4.29.491 1.814-1.426 3.361-1.88 5.752-1.88.523 1.042.779 1.619.779 2.767 0 .876-.139 1.747-.411 2.575 1.467 1.731 2.081 3.862 2.081 6.1zm-3.431 2.698c0-2.345-1.425-4.412-3.922-4.412-1.009 0-1.974.182-2.988.321a15.64 15.64 0 0 1-2.406.171 15.73 15.73 0 0 1-2.406-.171c-.998-.139-1.974-.321-2.988-.321-2.497 0-3.922 2.067-3.922 4.412 0 4.69 4.29 5.411 8.025 5.411h2.572c3.751 0 8.035-.716 8.035-5.411zM20.5 16.94c-1.377 0-1.958 1.827-1.958 2.943s.582 2.943 1.958 2.943 1.958-1.827 1.958-2.943-.582-2.943-1.958-2.943z"/>
    </symbol>
    <symbol id="dagger" viewBox="0 0 32 32">
      <path stroke-width="1.792" d="m7.583 7.5 16.833 16.833M7.583 24.5 24.416 7.667"/>
    </symbol>
    <symbol id="game" viewBox="0 0 26 32">
      <path d="M3.619 3.728c0-.852.303-1.58.909-2.186a2.982 2.982 0 0 1 2.188-.91h12.387c.852 0 1.58.303 2.186.91.607.606.91 1.335.91 2.186v24.774c0 .852-.303 1.581-.91 2.188a2.98 2.98 0 0 1-2.186.909H6.716a2.985 2.985 0 0 1-2.188-.909 2.985 2.985 0 0 1-.909-2.188V3.728zm4.645 6.194c0 .439.149.807.446 1.104.296.296.664.444 1.102.444h1.548v1.548c0 .439.149.807.446 1.104.296.296.664.444 1.102.444s.807-.148 1.104-.444c.296-.297.444-.665.444-1.104V11.47h1.548c.439 0 .807-.148 1.104-.444.296-.297.444-.665.444-1.104s-.148-.807-.444-1.104a1.502 1.502 0 0 0-1.104-.444h-1.548V6.826c0-.439-.148-.807-.444-1.104-.297-.296-.665-.444-1.104-.444s-.806.148-1.102.444a1.5 1.5 0 0 0-.446 1.104v1.548H9.812c-.439 0-.806.148-1.102.444a1.5 1.5 0 0 0-.446 1.104zm0 10.064c0 .645.226 1.193.678 1.644.451.452.999.678 1.644.678s1.193-.226 1.644-.678c.452-.451.678-.999.678-1.644s-.226-1.193-.678-1.644c-.451-.452-.999-.678-1.644-.678s-1.193.226-1.644.678a2.236 2.236 0 0 0-.678 1.644zm4.645 4.645c0 .645.226 1.193.678 1.644.451.452.999.678 1.644.678s1.193-.226 1.644-.678c.452-.451.678-.999.678-1.644s-.226-1.193-.678-1.644c-.451-.452-.999-.678-1.644-.678s-1.193.226-1.644.678a2.236 2.236 0 0 0-.678 1.644z"/>
    </symbol>
    <symbol id="gt" viewBox="0 0 32 32">
      <path d="M9.038 17.535h8.193v7.943h-3.377l-.403-3.396c-.384 1.215-1.068 2.117-2.053 2.705s-2.187.882-3.607.882c-1.292 0-2.443-.288-3.454-.863-.998-.576-1.784-1.401-2.36-2.475-.563-1.074-.844-2.328-.844-3.761 0-2.29.684-4.099 2.053-5.43s3.498-1.995 6.389-1.995c1.65 0 3.102.269 4.355.806 1.266.537 2.341 1.369 3.223 2.494-.576.294-1.701.883-3.377 1.765l-.48.269a4.741 4.741 0 0 0-1.746-1.113 5.825 5.825 0 0 0-2.11-.384c-1.228 0-2.142.326-2.744.979-.601.639-.902 1.433-.902 2.379 0 1.023.32 1.848.959 2.475.652.627 1.644.94 2.974.94.576 0 1.132-.083 1.669-.249a2.994 2.994 0 0 0 1.381-.863H9.036v-3.108z"/>
      <path d="M29.932 10.36a234.3 234.3 0 0 0-5.852-.115V20.26h-4.797V10.245c-1.906.013-3.85.051-5.833.115V6.331h16.481v4.029z"/>
    </symbol>
    <symbol id="lightning" viewBox="0 0 25 32">
      <path d="M24.731.682a.48.48 0 0 0-.435-.281H10.838a.49.49 0 0 0-.406.222L.085 17.075a.473.473 0 0 0 .396.746h7.41L1.35 30.644a.498.498 0 0 0 .023.486.495.495 0 0 0 .422.241h2.898a.47.47 0 0 0 .357-.155l16.975-18.377a.483.483 0 0 0-.357-.823h-6.512l9.497-10.819a.48.48 0 0 0 .077-.513z"/>
    </symbol>
    <symbol id="youtube" viewBox="0 0 32 32">
      <path d="M25.574 7.416c-1.943-.486-10.203-.486-10.203-.486s-8.098 0-10.203.486C4.034 7.74 3.225 8.55 2.901 9.683c-.324 2.105-.324 6.316-.324 6.316s0 4.211.486 6.316c.324 1.134 1.134 1.943 2.267 2.267 1.943.486 10.203.486 10.203.486s8.098 0 10.203-.486c1.134-.324 1.943-1.134 2.267-2.267.486-2.105.486-6.316.486-6.316s0-4.211-.648-6.316c-.324-1.134-1.134-1.943-2.267-2.267zm-12.632 5.408c0-.317.342-.516.618-.358l5.557 3.175a.413.413 0 0 1 0 .717l-5.557 3.175a.413.413 0 0 1-.618-.358v-6.351z"/>
    </symbol>
  </defs>
</svg>