<svg xmlns="http://www.w3.org/2000/svg" width="29" height="20" fill="none">
    <path fill="#000"
        d="M8.209 11.486h7.936v7.695h-3.271l-.39-3.29c-.372 1.178-1.035 2.051-1.99 2.621-.953.57-2.118.855-3.494.855-1.251 0-2.366-.279-3.345-.836-.967-.558-1.729-1.357-2.286-2.398C.823 15.093.55 13.878.55 12.49c0-2.218.663-3.971 1.989-5.26 1.325-1.289 3.389-1.933 6.189-1.933 1.598 0 3.005.26 4.22.78 1.226.521 2.267 1.327 3.122 2.417-.558.285-1.648.855-3.272 1.71l-.464.26a4.593 4.593 0 0 0-1.692-1.078A5.646 5.646 0 0 0 8.6 9.014c-1.19 0-2.076.316-2.658.948-.582.62-.874 1.388-.874 2.305 0 .992.31 1.79.93 2.398.632.607 1.592.91 2.88.91.558 0 1.097-.08 1.618-.241.533-.161.979-.44 1.338-.836H8.209v-3.011Z" />
    <path fill="#2B788B"
        d="M28.45 4.536c-1.946-.062-3.836-.1-5.67-.111v9.702h-4.646V4.425c-1.846.012-3.73.05-5.65.111V.633H28.45v3.903Z" />
</svg>